<svg width="166" height="26" viewBox="0 0 166 26" fill="none" xmlns="http://www.w3.org/2000/svg">
<g clip-path="url(#clip0_335_2713)">
<path d="M13.6697 20.2402C13.8389 20.2467 14.0053 20.1957 14.1418 20.0955C14.2915 19.9577 14.4004 19.7813 14.4564 19.5857L16.1054 14.8466C16.154 14.7396 16.1817 14.6242 16.1872 14.5068C16.1839 14.3896 16.148 14.2757 16.0835 14.1779C16.0191 14.08 15.9285 14.0021 15.8221 13.9529L15.1928 13.6131C15.0717 13.5454 14.935 13.5107 14.7963 13.5124C14.6847 13.5219 14.577 13.5577 14.4818 13.6167C14.3867 13.6758 14.3068 13.7565 14.2488 13.8522C13.4512 14.9924 12.4297 15.9582 11.2467 16.6907C10.199 17.2675 9.01878 17.5604 7.82299 17.5403C6.80972 17.5403 6.29994 17.1123 6.29994 16.2816V4.7706C6.288 4.53101 6.34478 4.293 6.46358 4.0846C6.60105 3.90609 6.79347 3.77781 7.01112 3.71957L7.64048 3.51188C7.79727 3.4481 7.93726 3.34903 8.04956 3.22237C8.13695 3.08125 8.17667 2.91577 8.16285 2.75035V1.99512C8.16911 1.82177 8.10824 1.65269 7.99292 1.52311C7.92971 1.46005 7.85381 1.41116 7.77026 1.3797C7.6867 1.34823 7.59741 1.3349 7.50831 1.34059H0.686059C0.595079 1.33508 0.503942 1.34845 0.418378 1.37986C0.332814 1.41127 0.254672 1.46004 0.188866 1.52311C0.127433 1.58487 0.0794906 1.65871 0.0480739 1.73996C0.0166571 1.82121 0.00244986 1.9081 0.00635146 1.99512V2.75035C-0.00427749 2.91634 0.0375547 3.08147 0.12593 3.22237C0.240953 3.35305 0.388653 3.45079 0.553894 3.50558L1.1329 3.71957C1.36181 3.77184 1.56605 3.90061 1.71191 4.0846C1.82736 4.29182 1.8819 4.52743 1.86925 4.7643V16.2312C1.8819 16.4681 1.82736 16.7037 1.71191 16.9109C1.56605 17.0949 1.36181 17.2237 1.1329 17.276L0.553894 17.4837C0.388367 17.5446 0.239577 17.6438 0.119636 17.7732C0.0322437 17.9143 -0.00747118 18.0798 0.00635146 18.2452V19.0067C0.00332519 19.0927 0.01796 19.1784 0.0493519 19.2585C0.0807437 19.3386 0.128226 19.4114 0.188866 19.4724C0.254363 19.5363 0.332301 19.586 0.417834 19.6185C0.503367 19.651 0.594668 19.6655 0.686059 19.6612H11.7817C11.925 19.6539 12.0684 19.6753 12.2033 19.7242C12.3412 19.7828 12.4721 19.8566 12.5935 19.9444C12.8322 20.1321 13.127 20.2341 13.4306 20.234L13.6697 20.2402ZM23.922 19.6612C24.0889 19.6612 24.249 19.5949 24.367 19.4769C24.4851 19.3589 24.5514 19.1988 24.5514 19.0319V18.2452C24.5589 18.0772 24.5078 17.9119 24.4068 17.7775C24.3057 17.6431 24.161 17.5481 23.9975 17.5088L23.6073 17.383C23.3998 17.321 23.2157 17.1982 23.0787 17.0305C22.9667 16.8403 22.912 16.6217 22.9213 16.4012V7.1244C22.9213 6.54539 22.6696 6.26218 22.1598 6.26218C22 6.26888 21.8416 6.29422 21.6878 6.3377L17.792 7.5146C17.6117 7.53065 17.4448 7.61673 17.3271 7.75438C17.2095 7.89203 17.1504 8.07029 17.1627 8.25095V8.88031C17.151 9.03355 17.1958 9.18577 17.2886 9.30828C17.4146 9.42759 17.568 9.51405 17.7354 9.56002C18.0638 9.62957 18.3627 9.79881 18.5913 10.0446C18.7541 10.3062 18.8311 10.612 18.8116 10.9194V16.3886C18.8243 16.6095 18.7694 16.829 18.6543 17.0179C18.5152 17.1934 18.3231 17.3192 18.1067 17.3767L17.7102 17.5088C17.5478 17.547 17.404 17.641 17.3039 17.7745C17.2038 17.9079 17.1538 18.0723 17.1627 18.2389V18.9752C17.1597 19.0612 17.1743 19.1469 17.2057 19.227C17.2371 19.3071 17.2846 19.3799 17.3452 19.441C17.4107 19.5048 17.4886 19.5546 17.5742 19.5871C17.6597 19.6195 17.751 19.6341 17.8424 19.6298L23.922 19.6612ZM20.6745 4.95311C21.3753 4.98292 22.0633 4.75952 22.6129 4.32375C22.8518 4.13036 23.0426 3.88423 23.1704 3.60468C23.2982 3.32514 23.3594 3.01979 23.3493 2.71259C23.3594 2.40813 23.298 2.10552 23.1702 1.82902C23.0423 1.55252 22.8515 1.30981 22.6129 1.12032C22.0623 0.686546 21.375 0.463392 20.6745 0.490957C19.9722 0.464093 19.2832 0.687089 18.7298 1.12032C18.492 1.31012 18.3021 1.55306 18.1753 1.8296C18.0485 2.10615 17.9884 2.40858 17.9997 2.71259C17.9884 3.01934 18.0484 3.32452 18.1751 3.60411C18.3018 3.8837 18.4917 4.13005 18.7298 4.32375C19.2813 4.76046 19.9717 4.98388 20.6745 4.95311V4.95311ZM33.0792 19.6612C33.2461 19.6612 33.4062 19.5949 33.5242 19.4769C33.6422 19.3589 33.7085 19.1988 33.7085 19.0319V18.2515C33.7271 18.0813 33.6801 17.9105 33.5773 17.7738C33.4744 17.637 33.3233 17.5445 33.1547 17.5151L32.5253 17.3578C32.3127 17.3186 32.1221 17.202 31.9904 17.0305C31.8856 16.8379 31.8356 16.6202 31.8456 16.4012V9.37122C31.8451 9.32994 31.8533 9.28902 31.8695 9.25109C31.8858 9.21315 31.9098 9.17903 31.94 9.15094C31.9684 9.12153 32.0028 9.09847 32.0407 9.08328C32.0787 9.06809 32.1195 9.06112 32.1603 9.06283H34.6778C34.7673 9.06771 34.8569 9.05338 34.9405 9.02082C35.024 8.98826 35.0997 8.93821 35.1624 8.87402C35.2223 8.80657 35.2681 8.72787 35.2973 8.64251C35.3265 8.55714 35.3384 8.46683 35.3323 8.37683V7.2251C35.3484 7.07694 35.3062 6.92833 35.2145 6.81082C35.1229 6.69331 34.989 6.61615 34.8414 6.59574C34.7876 6.58313 34.7316 6.58313 34.6778 6.59574H34.3379C33.4062 6.67376 32.4738 6.45334 31.6757 5.96638C31.3948 5.7427 31.1728 5.45375 31.0291 5.12467C30.8854 4.79559 30.8244 4.43638 30.8512 4.0783C30.8321 3.64769 30.961 3.2235 31.2163 2.87622C31.3321 2.72365 31.4829 2.60114 31.6559 2.519C31.829 2.43685 32.0192 2.39748 32.2107 2.4042C32.6425 2.42355 33.057 2.58008 33.3939 2.85105C33.8688 3.22859 34.3071 3.65003 34.7029 4.10977C34.8117 4.2407 34.9389 4.35517 35.0805 4.44962C35.2032 4.52521 35.3457 4.56247 35.4896 4.55662C35.6325 4.56114 35.7727 4.51686 35.8871 4.43106C36.0015 4.34526 36.0833 4.22307 36.119 4.0846L37.0064 1.64898C37.0558 1.52454 37.0834 1.39256 37.0882 1.25877C37.0832 1.14203 37.0459 1.02898 36.9803 0.932275C36.9147 0.83557 36.8235 0.759033 36.7169 0.711232C36.2439 0.485655 35.7419 0.326801 35.2253 0.239212C34.5595 0.11239 33.8828 0.0512583 33.2051 0.0566975C31.906 -0.0092427 30.6213 0.353398 29.5485 1.08885C28.5035 1.95228 27.8098 3.16749 27.5975 4.50627L27.308 5.86568C27.2679 6.04608 27.1977 6.21843 27.1003 6.37546C27.0091 6.51067 26.8799 6.6158 26.7289 6.67755L26.3891 6.86007C26.2046 6.93588 26.0422 7.05712 25.9171 7.21251C25.8233 7.37704 25.7775 7.56454 25.7849 7.75376V8.38312C25.7813 8.47443 25.7962 8.56552 25.8287 8.65095C25.8611 8.73637 25.9104 8.81438 25.9737 8.88031C26.0355 8.94174 26.1093 8.98969 26.1906 9.0211C26.2718 9.05252 26.3587 9.06673 26.4457 9.06283H27.4149C27.4971 9.06233 27.5761 9.09395 27.6352 9.15094C27.6656 9.18023 27.6897 9.21545 27.7059 9.25443C27.7222 9.2934 27.7302 9.33529 27.7296 9.37751V16.4137C27.7397 16.6344 27.685 16.8531 27.5723 17.0431C27.4295 17.216 27.2356 17.3394 27.0184 17.3955L26.6282 17.5277C26.4653 17.5657 26.3207 17.6595 26.2196 17.7928C26.1185 17.9261 26.0671 18.0906 26.0744 18.2578V18.9941C26.0705 19.0811 26.0847 19.168 26.1161 19.2493C26.1475 19.3305 26.1955 19.4044 26.2569 19.4661C26.3236 19.528 26.4018 19.576 26.4872 19.6073C26.5726 19.6386 26.6633 19.6527 26.7541 19.6486L33.0792 19.6612ZM48.8132 15.4194C48.6831 15.3268 48.5258 15.2803 48.3663 15.2872C48.0594 15.3076 47.7706 15.4397 47.5544 15.6585C47.1858 15.9837 46.7586 16.2358 46.2957 16.4012C45.7929 16.59 45.2594 16.6839 44.7223 16.6781C43.9383 16.692 43.1633 16.508 42.4692 16.1431C41.8237 15.8064 41.2869 15.2935 40.921 14.6641C40.8717 14.5854 40.8517 14.4918 40.8644 14.3998C40.8761 14.356 40.8991 14.3161 40.9311 14.2841C40.9632 14.252 41.0031 14.229 41.0469 14.2173L48.1838 11.6243C48.5488 11.4859 48.7376 11.2656 48.7376 10.995C48.7316 10.8882 48.7125 10.7825 48.681 10.6803C48.396 9.37649 47.6689 8.21136 46.623 7.38244C45.5281 6.58784 44.1988 6.18241 42.8468 6.23071C41.6472 6.21149 40.4645 6.51586 39.4231 7.11181C38.4293 7.68548 37.6194 8.5303 37.0882 9.54744C36.5254 10.6425 36.2421 11.8597 36.2637 13.0907C36.2405 14.3268 36.5444 15.547 37.1448 16.6277C37.7248 17.6499 38.5795 18.4893 39.6119 19.0508C40.7269 19.6665 41.9823 19.9831 43.2559 19.9696C44.5768 20.0327 45.8878 19.7136 47.0321 19.0508C47.9362 18.5067 48.6353 17.6792 49.0208 16.697C49.1126 16.4987 49.168 16.2855 49.1845 16.0676C49.1825 15.9424 49.1499 15.8196 49.0895 15.7099C49.0292 15.6002 48.943 15.507 48.8383 15.4382L48.8132 15.4194ZM42.6014 8.57822C43.0421 8.56681 43.4742 8.70218 43.8296 8.96306C44.1851 9.22395 44.4437 9.59555 44.565 10.0195C44.5881 10.0525 44.6042 10.09 44.6123 10.1295C44.6204 10.1691 44.6203 10.2098 44.612 10.2493C44.6038 10.2888 44.5875 10.3262 44.5643 10.3592C44.541 10.3922 44.5113 10.4201 44.4769 10.4411C44.4413 10.4667 44.4004 10.484 44.3573 10.4915L40.4238 12.0649C40.3826 12.0849 40.3374 12.0953 40.2916 12.0953C40.2458 12.0953 40.2006 12.0849 40.1595 12.0649C40.124 12.0438 40.0951 12.0131 40.0762 11.9764C40.0573 11.9397 40.049 11.8984 40.0525 11.8572V11.6998C40.007 10.8718 40.2592 10.0547 40.7637 9.39639C40.9847 9.12463 41.2656 8.90768 41.5844 8.76247C41.9032 8.61726 42.2513 8.54774 42.6014 8.55934V8.57822ZM63.943 19.9193C65.739 20.0001 67.5108 19.4796 68.9778 18.4403C70.0916 17.4567 70.7701 16.0717 70.8644 14.5888C70.9588 13.1059 70.4614 11.6461 69.4813 10.5292C68.3514 9.54044 67.0035 8.83307 65.5478 8.46494L62.401 7.49572C61.6856 7.30102 61.0102 6.98143 60.406 6.55168C60.2055 6.39834 60.0441 6.19988 59.9347 5.97243C59.8253 5.74497 59.7712 5.49493 59.7766 5.24262C59.7643 4.9875 59.8154 4.73331 59.9252 4.50271C60.035 4.27211 60.2002 4.07225 60.406 3.92096C60.949 3.56806 61.5908 3.39824 62.2374 3.43636C63.1592 3.44621 64.0597 3.7144 64.8366 4.21047C65.9321 4.94872 66.9211 5.83389 67.7757 6.84119C67.8487 6.93926 67.9436 7.01883 68.053 7.07349C68.1623 7.12814 68.2829 7.15636 68.4051 7.15587C68.5707 7.14987 68.7325 7.10457 68.8771 7.0237L69.2925 6.79084C69.4124 6.73289 69.5147 6.64403 69.5888 6.53341C69.6629 6.42279 69.7062 6.2944 69.7142 6.16148C69.7017 6.02614 69.6655 5.89406 69.6072 5.77128L67.6436 1.81261C67.5485 1.61598 67.4232 1.43547 67.2723 1.27766C67.1259 1.1569 66.9393 1.09616 66.7499 1.10773H66.4604C66.3225 1.10856 66.1852 1.12546 66.0513 1.15808L65.831 1.23989C65.5884 1.3367 65.3306 1.38996 65.0695 1.39723C64.6743 1.38468 64.2807 1.34049 63.8926 1.26507C63.2679 1.16346 62.6372 1.10249 62.0045 1.08255C60.3102 0.989725 58.6366 1.49048 57.2717 2.49861C56.7012 2.95338 56.2459 3.53635 55.943 4.20014C55.6401 4.86393 55.4981 5.58981 55.5284 6.31882C55.5284 8.77752 57.0934 10.5313 60.2234 11.5803L63.5527 12.6816C64.3383 12.9097 65.0732 13.2857 65.7177 13.7893C65.944 13.9909 66.1233 14.2396 66.2429 14.518C66.3625 14.7964 66.4196 15.0976 66.41 15.4005C66.4249 15.7078 66.3644 16.0141 66.2339 16.2927C66.1034 16.5713 65.9067 16.8138 65.6611 16.999C65.0339 17.4 64.2958 17.5917 63.5527 17.5466C61.1947 17.5466 59.0172 16.1599 57.02 13.3865C56.9492 13.2666 56.8504 13.1655 56.732 13.0921C56.6136 13.0187 56.4792 12.975 56.3403 12.9649C56.185 12.9651 56.032 13.0018 55.8934 13.0718L55.2641 13.3865C55.1397 13.4357 55.0342 13.5232 54.9629 13.6364C54.8916 13.7495 54.8582 13.8825 54.8676 14.0159C54.8649 14.1795 54.9016 14.3414 54.9746 14.4879L57.2277 19.2522C57.2891 19.4343 57.4058 19.5927 57.5614 19.7055C57.7171 19.8183 57.904 19.8798 58.0962 19.8815H58.4361C58.7091 19.8631 58.9762 19.7926 59.2228 19.6738C59.4711 19.5588 59.7371 19.4865 60.0095 19.4598C60.4318 19.4871 60.8521 19.5396 61.2682 19.6172C62.1605 19.8321 63.0755 19.9377 63.9933 19.9319L63.943 19.9193ZM77.8392 19.9319C79.1162 19.9949 80.376 19.6171 81.4077 18.8619L81.8797 18.4969C81.9149 18.4651 81.9579 18.4432 82.0043 18.4332C82.0507 18.4233 82.0989 18.4257 82.144 18.4403C82.1873 18.4708 82.2237 18.5102 82.2508 18.5557C82.2779 18.6012 82.2951 18.652 82.3014 18.7046L82.3517 18.9375C82.3985 19.1431 82.5034 19.3309 82.6538 19.4787C82.8172 19.5994 83.0174 19.6595 83.2202 19.6486H87.2104C87.2936 19.6555 87.3773 19.6458 87.4567 19.6199C87.5361 19.5941 87.6095 19.5528 87.6728 19.4983C87.736 19.4439 87.7878 19.3773 87.8251 19.3027C87.8624 19.228 87.8845 19.1466 87.8901 19.0633V18.2641C87.9005 18.0917 87.8473 17.9215 87.7406 17.7858C87.6338 17.6501 87.481 17.5582 87.3111 17.5277L86.946 17.3955C86.7283 17.3406 86.5341 17.217 86.3922 17.0431C86.2795 16.8531 86.2248 16.6344 86.2348 16.4137V7.09923C86.2348 6.5391 85.9894 6.26218 85.5048 6.26218C85.3444 6.2617 85.185 6.28721 85.0328 6.3377L81.0426 7.5146C80.8792 7.55391 80.7345 7.6489 80.6334 7.78326C80.5323 7.91763 80.4812 8.08299 80.4888 8.25095V8.88031C80.4789 9.03435 80.5259 9.18665 80.621 9.30828C80.746 9.42889 80.8998 9.51555 81.0678 9.56002C81.3913 9.61263 81.6868 9.77484 81.9049 10.0195C82.0632 10.2824 82.1358 10.5882 82.1125 10.8943V15.5641C82.1187 15.726 82.0886 15.8873 82.0244 16.0361C81.9401 16.1794 81.8182 16.2969 81.672 16.376C81.3092 16.576 80.9249 16.7343 80.5266 16.848C80.1501 16.9683 79.7574 17.0299 79.3623 17.0305C79.1999 17.0455 79.0362 17.0213 78.8851 16.96C78.734 16.8987 78.5998 16.802 78.4937 16.6781C78.2962 16.3509 78.206 15.9702 78.2357 15.5893V7.09923C78.2357 6.5391 77.9903 6.26218 77.4994 6.26218C77.339 6.2617 77.1796 6.28721 77.0273 6.3377L73.0435 7.5146C72.8754 7.5488 72.7248 7.6416 72.6188 7.77647C72.5127 7.91134 72.4581 8.0795 72.4645 8.25095V8.88031C72.4507 9.03477 72.4982 9.18846 72.5966 9.30828C72.7203 9.42754 72.8717 9.51407 73.0372 9.56002C73.3653 9.61474 73.6662 9.77624 73.8931 10.0195C74.0585 10.2801 74.1377 10.5861 74.1197 10.8943V15.8914C74.1197 18.5808 75.3595 19.9256 77.8392 19.9256V19.9319ZM96.1976 25.2877C96.2898 25.2962 96.3827 25.2842 96.4697 25.2527C96.5568 25.2211 96.6358 25.1708 96.7011 25.1052C96.7617 25.0442 96.8092 24.9713 96.8406 24.8912C96.872 24.8111 96.8866 24.7254 96.8836 24.6395V23.9031C96.9036 23.7334 96.857 23.5626 96.7538 23.4265C96.6505 23.2904 96.4986 23.1995 96.3298 23.1731L95.7004 23.0157C95.4845 22.9715 95.2895 22.8563 95.1466 22.6885C95.034 22.4987 94.9813 22.2793 94.9955 22.0591V19.7179C94.9955 19.5417 95.071 19.4535 95.2284 19.4535C95.2886 19.4408 95.3507 19.4408 95.4109 19.4535C96.1594 19.7631 96.9611 19.9234 97.771 19.9256C98.8468 19.9362 99.9049 19.651 100.83 19.1011C101.768 18.5228 102.52 17.6858 102.995 16.6907C103.497 15.534 103.764 14.2889 103.781 13.0278C103.797 11.7668 103.562 10.5152 103.089 9.34604C102.679 8.41767 102.01 7.62683 101.163 7.06776C100.33 6.54547 99.3645 6.27451 98.3815 6.28735C97.8137 6.27458 97.2497 6.38181 96.7263 6.60203C96.1978 6.83648 95.7111 7.15533 95.285 7.54607C95.2549 7.57751 95.2187 7.60261 95.1788 7.6199C95.1388 7.63719 95.0957 7.64633 95.0522 7.64677C94.9074 7.64677 94.8382 7.57125 94.8382 7.41391V7.09923C94.8382 6.52022 94.5927 6.237 94.1018 6.237C93.9415 6.23749 93.7823 6.26297 93.6298 6.31253L89.8033 7.43908C89.6379 7.47236 89.4903 7.56492 89.3883 7.69936C89.2863 7.8338 89.237 8.00086 89.2495 8.16914V8.7985C89.238 8.95465 89.2851 9.10948 89.3816 9.23276C89.5067 9.35337 89.6605 9.44003 89.8285 9.4845C90.1534 9.54902 90.4478 9.71945 90.6655 9.9691C90.8239 10.2321 90.8965 10.5378 90.8732 10.8439V22.0213C90.8885 22.2425 90.8334 22.4627 90.7159 22.6507C90.5825 22.8194 90.3999 22.9426 90.1935 23.0031L89.8033 23.1353C89.6426 23.1775 89.5008 23.2724 89.4004 23.4047C89.3 23.5371 89.2468 23.6993 89.2495 23.8654V24.5954C89.2495 24.7623 89.3158 24.9224 89.4338 25.0404C89.5518 25.1585 89.7119 25.2248 89.8788 25.2248C89.895 25.2311 89.913 25.2311 89.9292 25.2248L96.1976 25.2877ZM96.4619 17.6221C96.0786 17.6268 95.7001 17.5359 95.3606 17.3578C95.2214 17.259 95.1116 17.1243 95.0429 16.968C94.9741 16.8117 94.9491 16.6398 94.9704 16.4704V10.1579C94.9479 9.95692 94.9764 9.75349 95.0534 9.56646C95.1304 9.37944 95.2534 9.21488 95.4109 9.088C95.7472 8.90138 96.128 8.80999 96.5123 8.82367C96.9395 8.82215 97.3601 8.92938 97.7345 9.13527C98.1088 9.34117 98.4246 9.63895 98.6521 10.0006C99.2497 10.9562 99.5396 12.0721 99.4829 13.1977C99.5711 14.3756 99.2752 15.5504 98.6395 16.5459C98.3933 16.8925 98.0663 17.1739 97.6869 17.3658C97.3075 17.5577 96.8871 17.6543 96.4619 17.6473V17.6221ZM112.46 25.3192C112.646 25.3269 112.826 25.2614 112.964 25.1367C113.025 25.0749 113.073 25.0011 113.105 24.9198C113.136 24.8386 113.15 24.7517 113.146 24.6646V23.9283C113.166 23.7586 113.12 23.5878 113.016 23.4517C112.913 23.3156 112.761 23.2247 112.592 23.1982L111.963 23.0409C111.748 22.9981 111.555 22.8825 111.416 22.7136C111.299 22.5251 111.242 22.3057 111.252 22.0843V19.7179C111.252 19.5417 111.334 19.4535 111.491 19.4535C111.551 19.4408 111.613 19.4408 111.674 19.4535C112.422 19.7637 113.224 19.9241 114.034 19.9256C115.109 19.9362 116.168 19.651 117.092 19.1011C118.034 18.5278 118.785 17.6892 119.251 16.6907C119.757 15.5349 120.026 14.2894 120.042 13.0279C120.058 11.7664 119.821 10.5145 119.345 9.34604C118.935 8.41767 118.267 7.62683 117.42 7.06776C116.587 6.54547 115.621 6.27451 114.638 6.28735C114.072 6.27471 113.51 6.38195 112.989 6.60203C112.459 6.83638 111.97 7.1552 111.541 7.54607C111.511 7.5778 111.475 7.60309 111.435 7.6204C111.395 7.63772 111.352 7.64669 111.309 7.64677C111.164 7.64677 111.095 7.57125 111.095 7.41391V7.09923C111.095 6.52022 110.855 6.237 110.364 6.237C110.204 6.23653 110.045 6.26204 109.892 6.31253L106.06 7.43908C105.895 7.47244 105.748 7.56525 105.647 7.69986C105.546 7.83446 105.498 8.00148 105.512 8.16914V8.7985C105.501 8.95465 105.548 9.10948 105.644 9.23276C105.768 9.35202 105.919 9.43855 106.085 9.4845C106.412 9.54726 106.709 9.71788 106.928 9.9691C107.084 10.2333 107.156 10.5381 107.136 10.8439V22.0213C107.148 22.2422 107.093 22.4616 106.979 22.6507C106.845 22.8194 106.663 22.9426 106.456 23.0031L106.06 23.1353C105.9 23.1787 105.76 23.2741 105.661 23.4063C105.561 23.5385 105.509 23.7001 105.512 23.8654V24.5954C105.512 24.7623 105.578 24.9224 105.696 25.0404C105.814 25.1585 105.975 25.2248 106.141 25.2248H112.511L112.46 25.3192ZM112.725 17.6473C112.341 17.652 111.963 17.5611 111.623 17.383C111.484 17.2835 111.374 17.1489 111.305 16.993C111.235 16.837 111.208 16.6653 111.227 16.4956V10.1579C111.21 9.95682 111.242 9.75465 111.32 9.56844C111.397 9.38224 111.519 9.21746 111.674 9.088C112.01 8.90138 112.391 8.80999 112.775 8.82367C113.202 8.82215 113.623 8.92938 113.997 9.13527C114.371 9.34117 114.687 9.63895 114.915 10.0006C115.513 10.9556 115.801 12.0724 115.739 13.1977C115.827 14.3747 115.533 15.5485 114.902 16.5459C114.656 16.8921 114.328 17.1732 113.949 17.3651C113.57 17.5569 113.15 17.6538 112.725 17.6473V17.6473ZM128.301 19.6612C128.388 19.6651 128.475 19.6509 128.556 19.6195C128.638 19.5881 128.711 19.5402 128.773 19.4787C128.836 19.4129 128.885 19.3348 128.916 19.2492C128.948 19.1636 128.961 19.0725 128.956 18.9815V18.2766C128.959 18.1106 128.907 17.9481 128.808 17.8148C128.709 17.6815 128.568 17.5849 128.408 17.5403L128.012 17.4081C127.795 17.3544 127.606 17.2248 127.477 17.0431C127.369 16.8515 127.319 16.6331 127.332 16.4137V0.843397C127.332 0.283267 127.087 0.00634766 126.596 0.00634766C126.427 0.00634365 126.259 0.031807 126.098 0.0818725L122.14 1.2336C121.969 1.27195 121.817 1.36938 121.711 1.50871C121.605 1.64804 121.552 1.82031 121.561 1.99512V2.62448C121.551 2.77852 121.598 2.93083 121.693 3.05245C121.818 3.17307 121.972 3.25972 122.14 3.30419C122.475 3.36727 122.779 3.54261 123.002 3.80138C123.157 4.07272 123.231 4.38286 123.216 4.69508V16.4137C123.227 16.6353 123.17 16.8549 123.052 17.0431C122.913 17.2169 122.721 17.3406 122.505 17.3955L122.115 17.5277C121.951 17.5659 121.805 17.6606 121.704 17.7952C121.603 17.9299 121.552 18.0958 121.561 18.2641V18.9689C121.554 19.0521 121.564 19.1359 121.589 19.2153C121.615 19.2946 121.657 19.3681 121.711 19.4314C121.766 19.4946 121.832 19.5464 121.907 19.5837C121.981 19.621 122.063 19.6431 122.146 19.6486H128.301V19.6612ZM137.194 19.6612C137.361 19.6612 137.521 19.5949 137.639 19.4769C137.757 19.3589 137.823 19.1988 137.823 19.0319V18.2515C137.833 18.0841 137.783 17.9188 137.683 17.7843C137.583 17.6498 137.439 17.5546 137.276 17.5151L136.879 17.383C136.673 17.3224 136.49 17.1993 136.357 17.0305C136.24 16.8426 136.184 16.6223 136.2 16.4012V7.1244C136.2 6.54539 135.942 6.26218 135.438 6.26218C135.278 6.26785 135.12 6.29321 134.966 6.3377L131.007 7.5146C130.838 7.54512 130.685 7.63696 130.578 7.77269C130.471 7.90842 130.418 8.0786 130.428 8.25095V8.88031C130.419 9.03435 130.466 9.18665 130.561 9.30828C130.686 9.42889 130.839 9.51555 131.007 9.56002C131.334 9.62961 131.631 9.79895 131.857 10.0446C132.022 10.3079 132.101 10.6157 132.084 10.9257V16.3886C132.095 16.6101 132.037 16.8297 131.92 17.0179C131.781 17.1918 131.588 17.3155 131.372 17.3704L130.976 17.5025C130.813 17.542 130.669 17.6372 130.569 17.7717C130.469 17.9062 130.419 18.0715 130.428 18.2389V18.9689C130.425 19.056 130.439 19.1429 130.47 19.2241C130.502 19.3054 130.55 19.3792 130.611 19.441C130.677 19.504 130.755 19.5528 130.84 19.5842C130.926 19.6156 131.017 19.629 131.108 19.6235L137.194 19.6612ZM133.94 4.95311C134.643 4.98275 135.333 4.75945 135.885 4.32375C136.122 4.12909 136.311 3.88256 136.438 3.60321C136.564 3.32385 136.625 3.01913 136.615 2.71259C136.626 2.40858 136.566 2.10615 136.439 1.8296C136.313 1.55306 136.123 1.31012 135.885 1.12032C135.314 0.727093 134.637 0.51655 133.943 0.51655C133.25 0.51655 132.573 0.727093 132.002 1.12032C131.763 1.30981 131.572 1.55252 131.445 1.82902C131.317 2.10552 131.255 2.40813 131.266 2.71259C131.255 3.01979 131.317 3.32514 131.444 3.60468C131.572 3.88423 131.763 4.13036 132.002 4.32375C132.551 4.75952 133.24 4.98292 133.94 4.95311V4.95311ZM151.827 15.4194C151.699 15.3259 151.544 15.2792 151.386 15.2872C151.078 15.3095 150.788 15.4412 150.568 15.6585C150.201 15.9857 149.773 16.2379 149.309 16.4012C148.807 16.5905 148.273 16.6844 147.736 16.6781C146.952 16.6912 146.177 16.5073 145.483 16.1431C144.838 15.8047 144.302 15.2923 143.934 14.6641C143.884 14.5859 143.866 14.4911 143.884 14.3998C143.894 14.3551 143.916 14.3141 143.949 14.2818C143.981 14.2494 144.022 14.2271 144.067 14.2173L151.197 11.6243C151.569 11.4859 151.751 11.2656 151.751 10.995C151.744 10.8887 151.727 10.7834 151.701 10.6803C151.402 9.39805 150.676 8.25534 149.643 7.43908C148.55 6.63959 147.219 6.23364 145.867 6.28735C144.667 6.26434 143.484 6.56665 142.443 7.16216C141.448 7.73388 140.637 8.57921 140.108 9.59778C139.543 10.6923 139.258 11.9096 139.277 13.1411C139.257 14.3768 139.561 15.5962 140.158 16.6781C140.738 17.7003 141.593 18.5396 142.625 19.1011C143.719 19.6848 144.942 19.9835 146.181 19.9696C147.502 20.0334 148.814 19.7143 149.957 19.0508C150.863 18.5085 151.563 17.6804 151.946 16.697C152.036 16.4983 152.089 16.2851 152.104 16.0676C152.104 15.9426 152.074 15.8193 152.014 15.7093C151.955 15.5993 151.869 15.506 151.764 15.4382L151.827 15.4194ZM145.52 8.57822C145.952 8.57032 146.374 8.698 146.729 8.94325C147.07 9.21305 147.319 9.58268 147.44 10.0006C147.462 10.0339 147.478 10.0714 147.485 10.1108C147.493 10.1501 147.493 10.1906 147.484 10.2299C147.476 10.2691 147.46 10.3063 147.437 10.3394C147.415 10.3724 147.386 10.4006 147.352 10.4222C147.316 10.4468 147.275 10.464 147.232 10.4726L143.293 12.046C143.253 12.0675 143.209 12.0787 143.164 12.0787C143.118 12.0787 143.074 12.0675 143.035 12.046C142.998 12.0261 142.968 11.9957 142.949 11.9586C142.93 11.9216 142.922 11.8797 142.928 11.8383V11.681C142.89 10.8575 143.151 10.0482 143.664 9.40268C143.884 9.13179 144.164 8.91535 144.482 8.77018C144.799 8.62501 145.146 8.55501 145.495 8.56563L145.52 8.57822ZM160.096 19.9696C161.46 20.0469 162.809 19.6586 163.923 18.8682C164.387 18.4914 164.756 18.0095 164.998 17.4625C165.239 16.9154 165.348 16.3186 165.314 15.7214C165.343 15.2235 165.271 14.7249 165.102 14.2555C164.933 13.7861 164.671 13.3556 164.332 12.99C163.496 12.2402 162.478 11.7218 161.38 11.4859L159.436 10.9635C158.844 10.8322 158.279 10.6047 157.762 10.2901C157.61 10.1972 157.485 10.0678 157.397 9.91388C157.309 9.75991 157.261 9.58628 157.258 9.40898C157.252 9.25369 157.284 9.09931 157.351 8.95903C157.418 8.81875 157.518 8.69673 157.642 8.6034C157.977 8.39103 158.373 8.29381 158.768 8.32648C159.436 8.34289 160.088 8.53618 160.657 8.88661C161.466 9.38103 162.21 9.97518 162.872 10.6551C163.01 10.8009 163.2 10.8868 163.401 10.8943C163.557 10.8922 163.71 10.8464 163.841 10.7621L164.105 10.6048C164.2 10.5676 164.28 10.5024 164.337 10.418C164.393 10.3337 164.422 10.2341 164.42 10.1327C164.407 10.0056 164.37 9.88197 164.313 9.76771L162.929 6.86007C162.873 6.72281 162.778 6.60489 162.657 6.52097C162.535 6.43705 162.391 6.39083 162.243 6.38805C162.066 6.40059 161.89 6.43224 161.72 6.48245C161.487 6.54 161.249 6.56957 161.009 6.57056C160.615 6.56202 160.222 6.52839 159.832 6.46987C159.382 6.38198 158.925 6.33771 158.466 6.3377C157.21 6.26815 155.969 6.63747 154.955 7.38244C154.538 7.72324 154.207 8.15699 153.988 8.64884C153.77 9.14069 153.67 9.67695 153.696 10.2146C153.668 10.6885 153.74 11.163 153.907 11.6074C154.074 12.0518 154.332 12.4564 154.665 12.7949C155.472 13.4996 156.434 14.0041 157.472 14.2676L159.461 14.897C160.032 15.0283 160.571 15.2722 161.047 15.6145C161.197 15.7304 161.32 15.879 161.405 16.049C161.49 16.2191 161.535 16.4062 161.538 16.5963C161.547 16.7721 161.513 16.9476 161.44 17.1076C161.367 17.2676 161.255 17.4075 161.116 17.5151C160.756 17.7438 160.333 17.8538 159.908 17.8298C159.053 17.8134 158.219 17.563 157.497 17.106C156.596 16.5453 155.798 15.8343 155.137 15.004C155.068 14.8993 154.975 14.8131 154.865 14.7528C154.756 14.6924 154.633 14.6598 154.508 14.6578C154.379 14.6636 154.254 14.7003 154.143 14.7648L153.671 15.0292C153.546 15.0783 153.441 15.1658 153.37 15.279C153.298 15.3922 153.265 15.5251 153.274 15.6585C153.275 15.7898 153.312 15.9184 153.381 16.0298L155.055 19.3403C155.114 19.4962 155.218 19.6313 155.354 19.7286C155.489 19.826 155.65 19.8814 155.817 19.8878C155.94 19.8905 156.064 19.8735 156.182 19.8375C156.264 19.819 156.344 19.7937 156.421 19.7619C156.665 19.6375 156.934 19.5728 157.208 19.5731C157.509 19.5858 157.809 19.6301 158.101 19.7053C158.751 19.8747 159.419 19.9634 160.09 19.9696" fill="white"/>
</g>
<defs>
<clipPath id="clip0_335_2713">
<rect width="165.32" height="25.3191" fill="white"/>
</clipPath>
</defs>
</svg>
